<svg width="32" height="33" viewBox="0 0 32 33" fill="none" xmlns="http://www.w3.org/2000/svg">
<g clip-path="url(#clip0_0_61)">
<path d="M19.9165 0.5C13.2542 0.5 7.83398 5.90537 7.83398 12.5495C7.83398 19.1937 13.2542 24.599 19.9165 24.599C26.5789 24.599 31.9991 19.1937 31.9991 12.5495C31.999 5.90537 26.5788 0.5 19.9165 0.5ZM19.9165 22.7227C14.2888 22.7227 9.71037 18.159 9.71037 12.5495C9.71037 6.94 14.2888 2.37639 19.9165 2.37639C25.5442 2.37639 30.1227 6.94007 30.1227 12.5495C30.1227 18.159 25.5442 22.7227 19.9165 22.7227Z" fill="#D90429"/>
<path d="M20.8547 6.47742H18.9783V13.4877H26.0038V11.6113H20.8547V6.47742Z" fill="#D90429"/>
<path d="M0.900024 23.1732L5.91765 18.1698L7.24238 19.4982L2.22475 24.5017L0.900024 23.1732Z" fill="#D90429"/>
<path d="M0.00012207 16.9745L4.61929 12.3683L5.94402 13.6968L1.32485 18.3029L0.00012207 16.9745Z" fill="#D90429"/>
<path d="M14.234 31.1677L18.8532 26.5615L20.178 27.89L15.5587 32.4962L14.234 31.1677Z" fill="#D90429"/>
<path d="M2.2428 28.9306L8.10671 23.0833L9.43144 24.4118L3.56753 30.2591L2.2428 28.9306Z" fill="#D90429"/>
<path d="M8.01685 30.27L13.0345 25.2665L14.3592 26.595L9.34157 31.5984L8.01685 30.27Z" fill="#D90429"/>
</g>
<defs>
<clipPath id="clip0_0_61">
<rect width="32" height="32" fill="white" transform="translate(0 0.5)"/>
</clipPath>
</defs>
</svg>
