<svg width="48" height="49" viewBox="0 0 48 49" fill="none" xmlns="http://www.w3.org/2000/svg">
<path d="M19.968 14.6451C20.352 15.0291 20.928 15.0291 21.312 14.6451C21.696 14.2611 21.696 13.6851 21.312 13.3011L18.912 10.9011C18.528 10.5171 17.952 10.5171 17.568 10.9011C17.184 11.2851 17.184 11.8611 17.568 12.2451L19.968 14.6451Z" fill="#D90429"/>
<path d="M29.088 10.8051L26.592 13.3011C26.208 13.6851 26.208 14.2611 26.592 14.6451C26.976 15.0291 27.552 15.0291 27.936 14.6451L30.336 12.2451C30.72 11.8611 30.72 11.2851 30.336 10.9011C29.952 10.5171 29.472 10.4211 29.088 10.8051V10.8051Z" fill="#D90429"/>
<path d="M18.912 15.7011C18.528 15.3171 17.952 15.3171 17.568 15.7011C17.184 16.0851 17.184 16.6611 17.568 17.0451L19.968 19.4451C20.352 19.8291 20.928 19.8291 21.312 19.4451C21.696 19.0611 21.696 18.4851 21.312 18.1011L18.912 15.7011Z" fill="#D90429"/>
<path d="M29.088 15.7011L26.592 18.1011C26.208 18.4851 26.208 19.0611 26.592 19.4451C26.976 19.8291 27.552 19.8291 27.936 19.4451L30.336 17.0451C30.72 16.6611 30.72 16.0851 30.336 15.7011C29.952 15.3171 29.472 15.3171 29.088 15.7011V15.7011Z" fill="#D90429"/>
<path d="M18.912 20.5011C18.528 20.1171 17.952 20.1171 17.568 20.5011C17.184 20.8851 17.184 21.4611 17.568 21.8451L19.968 24.2451C20.352 24.6291 20.928 24.6291 21.312 24.2451C21.696 23.8611 21.696 23.2851 21.312 22.9011L18.912 20.5011Z" fill="#D90429"/>
<path d="M29.088 20.5011L26.592 22.9011C26.208 23.2851 26.208 23.8611 26.592 24.2451C26.976 24.6291 27.552 24.6291 27.936 24.2451L30.336 21.8451C30.72 21.4611 30.72 20.8851 30.336 20.5011C29.952 20.1171 29.472 20.1171 29.088 20.5011V20.5011Z" fill="#D90429"/>
<path d="M18.912 25.3011C18.528 24.9171 17.952 24.9171 17.568 25.3011C17.184 25.6851 17.184 26.2611 17.568 26.6451L19.968 29.0451C20.352 29.4291 20.928 29.4291 21.312 29.0451C21.696 28.6611 21.696 28.0851 21.312 27.7011L18.912 25.3011Z" fill="#D90429"/>
<path d="M29.0879 25.3011L26.6879 27.7011C26.3039 28.0851 26.3039 28.6611 26.6879 29.0451C27.0719 29.4291 27.6479 29.4291 28.0319 29.0451L30.4319 26.6451C30.8159 26.2611 30.8159 25.6851 30.4319 25.3011C30.0479 24.9171 29.4719 25.0131 29.0879 25.3011Z" fill="#D90429"/>
<path d="M18.912 30.1971C18.528 29.8131 17.952 29.8131 17.568 30.1971C17.184 30.5811 17.184 31.1571 17.568 31.5411L19.968 33.9411C20.352 34.3251 20.928 34.3251 21.312 33.9411C21.696 33.5571 21.696 32.9811 21.312 32.5971L18.912 30.1971Z" fill="#D90429"/>
<path d="M29.0879 30.1971L26.6879 32.5971C26.3039 32.9811 26.3039 33.5571 26.6879 33.9411C27.0719 34.3251 27.6479 34.3251 28.0319 33.9411L30.4319 31.5411C30.8159 31.1571 30.8159 30.5811 30.4319 30.1971C30.0479 29.8131 29.4719 29.8131 29.0879 30.1971Z" fill="#D90429"/>
<path d="M18.912 34.9971C18.528 34.6131 17.952 34.6131 17.568 34.9971C17.184 35.3811 17.184 35.9571 17.568 36.3411L19.968 38.7411C20.352 39.1251 20.928 39.1251 21.312 38.7411C21.696 38.3571 21.696 37.7811 21.312 37.3971L18.912 34.9971Z" fill="#D90429"/>
<path d="M29.0879 34.9971L26.6879 37.3971C26.3039 37.7811 26.3039 38.3571 26.6879 38.7411C27.0719 39.1251 27.6479 39.1251 28.0319 38.7411L30.4319 36.3411C30.8159 35.9571 30.8159 35.3811 30.4319 34.9971C30.0479 34.6131 29.4719 34.6131 29.0879 34.9971Z" fill="#D90429"/>
<path d="M37.92 28.8531V28.4691H44.832C45.408 28.4691 45.792 28.0851 45.792 27.5091V22.2291C45.792 21.6531 45.408 21.2691 44.832 21.2691H37.92V20.8851C37.92 19.5411 36.864 18.4851 35.52 18.4851H34.272V12.7251C34.272 9.17314 31.392 6.29314 27.84 6.29314H20.16C16.608 6.29314 13.728 9.17314 13.728 12.7251V18.4851H12.48C11.136 18.4851 10.08 19.5411 10.08 20.8851V21.2691H3.16801C2.59201 21.2691 2.20801 21.6531 2.20801 22.2291V27.5091C2.20801 28.0851 2.59201 28.4691 3.16801 28.4691H10.08V28.8531C10.08 30.1971 11.136 31.2531 12.48 31.2531H13.728V37.0131C13.728 40.5651 16.608 43.4451 20.16 43.4451H26.88C30.336 43.4451 34.176 40.6611 34.176 37.0131V31.2531H35.52C36.864 31.2531 37.92 30.1971 37.92 28.8531V28.8531ZM43.872 23.1891V26.5491H37.92V23.1891H43.872ZM4.12801 26.4531V23.0931H10.08V26.4531H4.12801ZM12.48 29.3331C12.192 29.3331 12 29.1411 12 28.8531C12 28.6611 12 22.1331 12 22.2291V20.8851C12 20.5971 12.192 20.4051 12.48 20.4051H13.728V29.4291H12.48V29.3331ZM15.648 37.0131C15.648 21.6531 15.648 27.4131 15.648 12.7251C15.648 10.2291 17.664 8.21314 20.16 8.21314H23.04V41.5251H20.16C17.664 41.5251 15.648 39.5091 15.648 37.0131ZM26.88 41.5251H24.96V8.11714H27.84C30.336 8.11714 32.352 10.1331 32.352 12.6291V19.3491V37.0131C32.352 39.5091 29.376 41.5251 26.88 41.5251V41.5251ZM34.272 20.3091H35.52C35.808 20.3091 36 20.5011 36 20.7891C36 20.9811 36 29.1411 36 28.7571C36 29.0451 35.808 29.2371 35.52 29.2371H34.272V20.3091Z" fill="#D90429"/>
<path d="M42.1439 36.0531H46.0799C46.6559 36.0531 47.0399 35.6691 47.0399 35.0931C47.0399 34.5171 46.6559 34.1331 46.0799 34.1331H43.1039V33.0771C43.1039 32.6931 42.9119 32.4051 42.5279 32.2131C42.2399 32.0211 41.8559 32.1171 41.5679 32.3091L36.3839 36.1491C35.9039 36.5331 35.9039 37.3011 36.3839 37.6851L41.5679 41.5251C41.8559 41.7171 42.2399 41.8131 42.5279 41.6211C42.8159 41.4291 43.0079 41.1411 43.0079 40.7571V39.7011H46.0799C46.6559 39.7011 47.0399 39.3171 47.0399 38.7411C47.0399 38.1651 46.6559 37.7811 46.0799 37.7811H42.1439C41.5679 37.7811 41.1839 38.1651 41.1839 38.7411V38.8371L38.5919 36.9171L41.1839 34.9971V35.0931C41.1839 35.5731 41.6639 36.0531 42.1439 36.0531V36.0531Z" fill="#D90429"/>
<path d="M4.89596 16.5651C4.89596 16.9491 5.08796 17.2371 5.37596 17.4291C5.66396 17.6211 6.04796 17.5251 6.33596 17.3331L11.52 13.4931C12 13.1091 12 12.3411 11.52 11.9571L6.33596 8.11714C6.14396 7.92514 5.75996 7.92514 5.37596 8.11714C5.08796 8.21314 4.89596 8.59714 4.89596 8.88514V9.94114H1.91996C1.34396 9.94114 0.959961 10.3251 0.959961 10.9011C0.959961 11.4771 1.34396 11.8611 1.91996 11.8611H5.85596C6.43196 11.8611 6.81596 11.4771 6.81596 10.9011V10.8051L9.40796 12.7251L6.81596 14.6451V14.5491C6.81596 13.9731 6.43196 13.5891 5.85596 13.5891H1.91996C1.34396 13.5891 0.959961 13.9731 0.959961 14.5491C0.959961 15.1251 1.34396 15.5091 1.91996 15.5091H4.89596V16.5651Z" fill="#D90429"/>
</svg>
