<svg width="48" height="49" viewBox="0 0 48 49" fill="none" xmlns="http://www.w3.org/2000/svg">
<path d="M13.0559 18.4851C12.5759 18.1971 11.9999 18.3891 11.8079 18.8691C10.6559 20.9811 9.98394 22.9971 9.59994 24.9171C9.50394 25.4931 9.98394 26.0691 10.5599 26.0691H37.6319C38.2079 26.0691 38.6879 25.4931 38.5919 24.9171C38.2079 23.0931 37.4399 21.0771 36.3839 18.8691C36.1919 18.3891 35.6159 18.1971 35.1359 18.4851C34.6559 18.6771 34.4639 19.3491 34.7519 19.7331C35.5199 21.2691 36.0959 22.8051 36.4799 24.1491H11.7119C12.0959 22.8051 12.6719 21.3651 13.5359 19.8291C13.7279 19.3491 13.5359 18.7731 13.0559 18.4851V18.4851Z" fill="#D90429"/>
<path d="M16.608 38.0691C17.184 39.4131 18.528 40.2771 19.968 40.2771H28.032C29.472 40.2771 30.816 39.4131 31.392 38.0691L32.064 36.4371C32.64 35.0931 32.352 33.4611 31.2 32.4051C30.528 31.7331 29.664 31.3491 28.704 31.3491H19.296C18.336 31.3491 17.472 31.7331 16.8 32.3091C15.744 33.3651 15.36 34.9971 15.936 36.3411L16.608 38.0691ZM22.752 38.2611V33.2691H25.248V38.2611H22.752ZM29.856 33.7491C30.336 34.2291 30.528 34.9971 30.24 35.6691L29.568 37.3011C29.28 37.8771 28.704 38.3571 28.032 38.3571H27.168V33.3651H28.704C29.184 33.2691 29.568 33.4611 29.856 33.7491ZM18.048 33.8451C18.144 33.7491 18.144 33.7491 18.048 33.8451C18.432 33.5571 18.816 33.3651 19.2 33.3651H20.736V38.2611H19.872C19.2 38.2611 18.624 37.8771 18.336 37.2051L17.664 35.6691C17.472 35.0931 17.568 34.3251 18.048 33.8451Z" fill="#D90429"/>
<path d="M23.9999 22.9971C29.8559 22.9971 34.6559 18.1971 34.6559 12.3411C34.6559 6.48514 29.8559 1.78114 23.9999 1.78114C18.1439 1.78114 13.4399 6.58114 13.4399 12.3411C13.4399 18.2931 18.1439 22.9971 23.9999 22.9971ZM23.9999 3.70114C28.7999 3.70114 32.7359 7.63714 32.7359 12.3411C32.7359 17.1411 28.7999 21.0771 23.9999 21.0771C19.1999 21.0771 15.3599 17.1411 15.3599 12.3411C15.3599 7.63714 19.1999 3.70114 23.9999 3.70114V3.70114Z" fill="#D90429"/>
<path d="M20.6399 16.7571C21.6959 17.8131 23.4239 17.8131 24.4799 16.7571L29.3759 11.8611C30.4319 10.8051 30.4319 9.07714 29.3759 8.02114C28.3199 6.96514 26.5919 6.96514 25.5359 8.02114L22.4639 11.0931L22.2719 10.9011C21.2159 9.84514 19.4879 9.84514 18.4319 10.9011C17.3759 11.9571 17.3759 13.6851 18.4319 14.7411L20.6399 16.7571ZM20.5439 12.0531C20.7359 12.0531 20.9279 12.1491 21.1199 12.2451L21.9839 13.1091C22.3679 13.4931 22.9439 13.4931 23.3279 13.1091L26.9759 9.46114C27.2639 9.17314 27.7439 9.17314 28.0319 9.46114C28.3199 9.74914 28.3199 10.2291 28.0319 10.5171L23.1359 15.4131C22.8479 15.7011 22.3679 15.7011 22.0799 15.4131L20.0639 13.3971C19.8719 13.2051 19.8719 13.0131 19.8719 12.8211C19.7759 12.4371 20.0639 12.0531 20.5439 12.0531V12.0531Z" fill="#D90429"/>
<path d="M1.43992 26.5491C1.63192 27.4131 2.39992 28.0851 3.35992 28.0851H4.31992L3.07192 29.6211C2.49592 30.3891 2.11192 31.1571 1.72792 32.0211C1.63192 32.1171 1.53592 32.2131 1.53592 32.4051C1.15192 33.4611 0.959918 34.6131 0.959918 35.7651C0.959918 35.8611 0.959918 45.1731 0.959918 45.0771C0.959918 46.6131 2.20792 47.8611 3.74392 47.8611H9.02392C10.5599 47.8611 11.7119 46.6131 11.7119 45.1731V43.9251H36.2879V45.1731C36.2879 46.7091 37.5359 47.8611 38.9759 47.8611H44.2559C45.7919 47.8611 46.9439 46.6131 46.9439 45.1731C46.9439 44.7891 46.9439 35.2851 46.9439 35.8611C46.9439 34.7091 46.7519 33.5571 46.3679 32.4051C46.3679 32.3091 46.2719 32.2131 46.1759 32.1171C45.7919 31.2531 45.4079 30.4851 44.8319 29.7171C44.7359 29.6211 43.5839 28.0851 43.6799 28.1811H44.6399C45.5039 28.1811 46.3679 27.5091 46.5599 26.6451L46.9439 24.7251C47.0399 24.1491 46.9439 23.5731 46.5599 23.0931C46.1759 22.6131 45.5999 22.4211 45.0239 22.4211H41.4719C40.8959 20.5011 40.0319 18.5811 38.8799 16.4691C38.4959 15.7971 37.9199 15.2211 37.3439 14.7411C36.8639 14.4531 36.2879 14.5491 35.9999 15.0291C35.7119 15.5091 35.8079 16.0851 36.2879 16.3731C36.6719 16.5651 36.9599 16.9491 37.2479 17.3331C38.7839 20.1171 39.7439 22.7091 40.1279 25.0131C40.2239 25.7811 40.5119 26.5491 40.8959 27.3171C40.8959 27.5091 40.9919 27.6051 41.0879 27.7011H6.81592C6.91192 27.6051 7.00792 27.4131 7.00792 27.3171C7.39192 26.5491 7.58392 25.7811 7.77592 25.0131C8.15992 22.7091 9.11992 20.1171 10.6559 17.3331C10.8479 16.9491 11.2319 16.5651 11.6159 16.3731C12.0959 16.0851 12.1919 15.5091 11.9039 15.0291C11.6159 14.5491 11.0399 14.4531 10.5599 14.7411C9.88792 15.1251 9.40792 15.7011 9.02392 16.4691C7.87192 18.5811 7.00792 20.5011 6.43192 22.4211H2.87992C2.30392 22.4211 1.72792 22.7091 1.34392 23.0931C0.959918 23.4771 0.863918 24.0531 0.959918 24.6291L1.43992 26.5491ZM42.5279 29.6211L43.3919 30.7731C43.5839 31.0611 43.7759 31.4451 43.9679 31.7331C41.5679 31.9251 39.3599 32.4051 37.9199 32.8851C36.1919 33.3651 35.7119 35.4771 36.9599 36.7251C38.3999 38.1651 40.9919 39.7971 45.0239 39.8931V41.9091H37.2479C35.6159 41.9091 9.21592 41.9091 2.87992 41.9091V39.8931C6.91192 39.7971 9.50392 38.1651 10.9439 36.7251C12.1919 35.4771 11.6159 33.3651 9.98392 32.8851C8.54392 32.4051 6.43192 31.9251 3.93592 31.7331C4.12792 31.4451 4.31992 31.0611 4.51192 30.7731L5.47192 29.6211H42.5279ZM44.7359 33.6531C44.8319 34.0371 44.9279 34.4211 44.9279 34.8051H43.5839C43.0079 34.8051 42.6239 35.1891 42.6239 35.7651C42.6239 36.3411 43.0079 36.7251 43.5839 36.7251H45.1199V37.9731C41.7599 37.8771 39.6479 36.5331 38.3999 35.3811C38.3039 35.2851 38.3039 35.0931 38.3039 34.9971C38.3039 34.9011 38.3999 34.8051 38.5919 34.7091C40.0319 34.3251 42.2399 33.7491 44.7359 33.6531ZM2.87992 36.7251H4.31992C4.89592 36.7251 5.27992 36.3411 5.27992 35.7651C5.27992 35.1891 4.89592 34.8051 4.31992 34.8051H2.97592C3.07192 34.4211 3.07192 34.0371 3.16792 33.6531C5.66392 33.7491 7.96792 34.3251 9.40792 34.8051C9.59992 34.9011 9.69592 34.9971 9.69592 35.0931C9.69592 35.1891 9.69592 35.2851 9.59992 35.4771C8.35192 36.6291 6.23992 38.0691 2.87992 38.0691V36.7251ZM9.79192 45.0771C9.79192 45.5571 9.40792 45.8451 9.02392 45.8451H3.74392C3.26392 45.9411 2.87992 45.5571 2.87992 45.0771V43.8291H9.69592V45.0771H9.79192ZM44.2559 45.9411H38.9759C38.4959 45.9411 38.2079 45.5571 38.2079 45.1731V43.9251H45.1199V45.1731C45.1199 45.5571 44.7359 45.9411 44.2559 45.9411V45.9411ZM45.1199 24.2451L44.7359 26.1651H42.6239C42.4319 25.6851 42.2399 25.2051 42.1439 24.7251C42.1439 24.5331 42.0479 24.4371 42.0479 24.2451H45.1199ZM5.95192 24.2451C5.95192 24.4371 5.85592 24.5331 5.85592 24.7251C5.75992 25.2051 5.56792 25.6851 5.37592 26.1651H3.26392L2.87992 24.2451H5.95192Z" fill="#D90429"/>
</svg>
