<svg width="32" height="33" viewBox="0 0 32 33" fill="none" xmlns="http://www.w3.org/2000/svg">
<g clip-path="url(#clip0_0_54)">
<path d="M5.9583 23.6869C4.20767 23.6869 2.78843 22.2677 2.78843 20.517C2.78843 18.7663 4.20767 17.3471 5.9583 17.3471C7.70899 17.3471 9.12824 18.7663 9.12824 20.517C9.12824 22.2677 7.70899 23.6869 5.9583 23.6869ZM5.9583 23.6869C8.73124 23.6869 10.9792 25.9348 10.9792 28.7077V31.5625M5.9583 23.6869C3.18542 23.6869 0.9375 25.9348 0.9375 28.7077V31.5625H10.9792M10.9792 31.5625L10.9792 26.8312C10.9792 24.0583 13.227 21.8104 16 21.8104M10.9792 31.5625L21.0208 31.5625M16 21.8104C14.2493 21.8104 12.8301 20.3912 12.8301 18.6405C12.8301 16.8898 14.2493 15.4706 16 15.4706C17.7507 15.4706 19.1699 16.8898 19.1699 18.6405C19.1699 20.3912 17.7507 21.8104 16 21.8104ZM16 21.8104C18.7729 21.8104 21.0208 24.0583 21.0208 26.8312V31.5625M21.0208 31.5625L21.0208 28.7077C21.0208 25.9348 23.2687 23.6869 26.0417 23.6869M21.0208 31.5625L31.0625 31.5625V28.7077C31.0625 25.9348 28.8146 23.6869 26.0417 23.6869M26.0417 23.6869C24.291 23.6869 22.8717 22.2677 22.8717 20.517C22.8717 18.7663 24.291 17.3471 26.0417 17.3471C27.7924 17.3471 29.2115 18.7663 29.2115 20.517C29.2115 22.2677 27.7924 23.6869 26.0417 23.6869ZM16 2.61676L17.5013 5.65876L20.8584 6.14657L18.4292 8.51445L19.0026 11.8579L16 10.2794L12.9974 11.8579L13.5708 8.51445L11.1416 6.14657L14.4987 5.65876L16 2.61676Z" stroke="#D90429" stroke-width="1.875" stroke-miterlimit="10"/>
</g>
<defs>
<clipPath id="clip0_0_54">
<rect width="32" height="32" fill="white" transform="translate(0 0.5)"/>
</clipPath>
</defs>
</svg>
