<?xml version="1.0" encoding="UTF-8"?>
<svg version="1.1" xmlns="http://www.w3.org/2000/svg" width="2000" height="2000">
<path d="M0 0 C660 0 1320 0 2000 0 C2000 660 2000 1320 2000 2000 C1340 2000 680 2000 0 2000 C0 1340 0 680 0 0 Z " fill="#3A506A" transform="translate(0,0)"/>
<path d="M0 0 C5.57319161 3.35138323 9.18834777 7.80095583 11.26953125 13.96484375 C12.73234947 21.54490179 10.50787143 27.66491962 6.26953125 33.96484375 C3.95189287 36.17468499 2.09556835 37.5518252 -0.73046875 38.96484375 C-0.84707699 42.3603861 -0.91785247 45.75541054 -0.98046875 49.15234375 C-1.03074219 50.5919043 -1.03074219 50.5919043 -1.08203125 52.06054688 C-1.16229673 57.85972797 -0.85143946 60.60428172 3.26953125 64.96484375 C3.80078125 67.4296875 3.80078125 67.4296875 3.76953125 69.90234375 C3.785 71.12244141 3.785 71.12244141 3.80078125 72.3671875 C3.26953125 74.96484375 3.26953125 74.96484375 -0.73046875 80.96484375 C-1.06046875 88.22484375 -1.39046875 95.48484375 -1.73046875 102.96484375 C13.11953125 102.96484375 27.96953125 102.96484375 43.26953125 102.96484375 C44.51398632 82.76489908 44.51398632 82.76489908 38.26953125 75.96484375 C37.06309559 72.34553677 36.94684566 69.7725337 37.26953125 65.96484375 C39.38124583 62.0430881 41.49506613 59.31793372 45.26953125 56.96484375 C49.74652305 56.22231828 53.94793549 56.41896724 58.14453125 58.15234375 C63.91821364 63.0769552 63.91821364 63.0769552 64.65625 67.04296875 C64.8658041 71.29185879 64.66973019 73.34485051 62.28515625 77.0390625 C59.37103592 81.8655743 59.59958518 86.90272068 59.51953125 92.40234375 C59.43703125 95.88796875 59.35453125 99.37359375 59.26953125 102.96484375 C73.78953125 102.96484375 88.30953125 102.96484375 103.26953125 102.96484375 C103.16640625 99.25234375 103.06328125 95.53984375 102.95703125 91.71484375 C102.91968872 89.9683252 102.91968872 89.9683252 102.8815918 88.18652344 C102.848479 87.26258789 102.81536621 86.33865234 102.78125 85.38671875 C102.75506592 84.4440918 102.72888184 83.50146484 102.7019043 82.53027344 C102.20112305 79.5589525 101.16700161 78.2566998 99.26953125 75.96484375 C98.06309559 72.34553677 97.94684566 69.7725337 98.26953125 65.96484375 C100.38124583 62.0430881 102.49506613 59.31793372 106.26953125 56.96484375 C110.91544382 56.19430215 115.06499611 56.3994497 119.33203125 58.40234375 C121.26953125 59.96484375 121.26953125 59.96484375 122.26953125 60.96484375 C124.64291764 61.12456352 126.99071397 61.22408705 129.3671875 61.28125 C130.43047523 61.31242165 130.43047523 61.31242165 131.51524353 61.34422302 C133.7874043 61.40978973 136.05968389 61.46863605 138.33203125 61.52734375 C139.86915308 61.57052224 141.40626275 61.6141363 142.94335938 61.65820312 C146.71862715 61.76547824 150.49401485 61.86672512 154.26953125 61.96484375 C154.5428125 61.19398438 154.81609375 60.423125 155.09765625 59.62890625 C157.10589827 55.06350272 160.98806878 52.80944402 165.01953125 50.15234375 C170.85836897 48.01892227 176.70852 47.95335825 182.45703125 50.46484375 C187.72102215 53.44991176 192.34742891 58.19853673 194.26953125 63.96484375 C194.9577726 72.27668156 193.94417657 77.54139188 189.64453125 84.65234375 C185.21008649 88.9700926 179.89995015 91.16662711 173.70703125 91.40234375 C166.66573323 90.99823447 162.0431033 89.18394657 157.26953125 83.90234375 C154.26953125 80.30636161 154.26953125 80.30636161 154.26953125 77.96484375 C149.73036206 78.08280829 145.19142483 78.20703488 140.65258789 78.3371582 C139.10738836 78.3805636 137.56213911 78.42223446 136.0168457 78.4621582 C133.80014029 78.51972574 131.58368645 78.58345799 129.3671875 78.6484375 C128.67238785 78.66514999 127.9775882 78.68186249 127.26173401 78.69908142 C123.98191096 78.52987231 123.98191096 78.52987231 121.26953125 79.96484375 C121.1121252 81.67048153 121.01859733 83.38211619 120.953125 85.09375 C120.91123047 86.12822266 120.86933594 87.16269531 120.82617188 88.22851562 C120.76719727 89.86143555 120.76719727 89.86143555 120.70703125 91.52734375 C120.66384766 92.61982422 120.62066406 93.71230469 120.57617188 94.83789062 C120.46971167 97.54671143 120.36908318 100.25576026 120.26953125 102.96484375 C127.52953125 102.96484375 134.78953125 102.96484375 142.26953125 102.96484375 C142.26953125 111.21484375 142.26953125 119.46484375 142.26953125 127.96484375 C147.00296875 127.87203125 147.00296875 127.87203125 151.83203125 127.77734375 C152.81244385 127.77065674 153.79285645 127.76396973 154.80297852 127.75708008 C161.26439408 127.52844437 164.26979963 126.00406713 169.26953125 121.96484375 C174.48806323 121.23241821 177.85766639 122.12164195 182.26953125 124.96484375 C185.34565314 128.37351936 187.13994518 130.61714866 187.58203125 135.21484375 C187.1559148 140.32824119 184.97915892 142.98167565 181.70703125 146.77734375 C179.04631749 148.97532468 176.21246152 149.16976581 172.89453125 149.27734375 C171.76917969 149.33341797 171.76917969 149.33341797 170.62109375 149.390625 C168.26953125 148.96484375 168.26953125 148.96484375 163.26953125 144.96484375 C152.87453125 144.46984375 152.87453125 144.46984375 142.26953125 143.96484375 C142.26953125 158.48484375 142.26953125 173.00484375 142.26953125 187.96484375 C161.5545454 188.85132819 161.5545454 188.85132819 169.26953125 182.96484375 C173.33646896 182.01539322 176.71826241 182.75681777 180.58203125 184.21484375 C184.34681715 186.66633224 185.85848785 188.73171356 187.26953125 192.96484375 C187.6652014 198.20747327 187.10545326 201.50839487 184.26953125 205.96484375 C180.33529688 209.53024365 176.6375426 210.30673849 171.34375 210.2578125 C167.96713785 209.78088988 165.8165115 208.12977696 163.26953125 205.96484375 C163.26953125 205.30484375 163.26953125 204.64484375 163.26953125 203.96484375 C156.33953125 203.96484375 149.40953125 203.96484375 142.26953125 203.96484375 C142.26953125 219.14484375 142.26953125 234.32484375 142.26953125 249.96484375 C149.19953125 249.96484375 156.12953125 249.96484375 163.26953125 249.96484375 C163.92953125 248.64484375 164.58953125 247.32484375 165.26953125 245.96484375 C169.32620469 243.27751156 173.56657868 243.2953262 178.26953125 243.96484375 C182.09421173 245.94801141 185.36020546 248.04011852 187.26953125 251.96484375 C188.0603188 257.70903667 187.38918252 261.97340171 184.26953125 266.96484375 C183.93953125 267.29484375 183.60953125 267.62484375 183.26953125 267.96484375 C183.10972688 270.41093373 183.01023678 272.83215433 182.953125 275.28125 C182.92195335 276.3778318 182.92195335 276.3778318 182.89015198 277.49656677 C182.82458101 279.84006031 182.76573693 282.18366914 182.70703125 284.52734375 C182.66385317 286.1126423 182.62023912 287.69792904 182.57617188 289.28320312 C182.46889205 293.17696412 182.36764635 297.07084147 182.26953125 300.96484375 C183.05884033 301.26358398 183.84814941 301.56232422 184.66137695 301.87011719 C189.55967532 303.92609115 192.40009584 308.14693335 194.64453125 312.83984375 C196.12657502 320.25006262 195.80656256 325.41810026 191.7578125 331.953125 C188.22041135 336.73465149 184.17512421 339.7155837 178.26953125 340.96484375 C171.17303447 341.98742922 166.38083127 340.7119491 160.40625 336.75390625 C156.13822982 333.18031714 153.57550209 328.33052296 153.06640625 322.73046875 C152.91489413 314.59931828 154.52188696 309.05058477 160.26953125 302.96484375 C161.12683838 302.57240479 161.98414551 302.17996582 162.86743164 301.77563477 C165.61785453 300.12667341 165.61785453 300.12667341 165.86889648 296.71850586 C165.85544189 295.4063208 165.8419873 294.09413574 165.828125 292.7421875 C165.82462791 291.69025963 165.82462791 291.69025963 165.82106018 290.61708069 C165.81132785 289.13676769 165.78955165 287.65649169 165.7565918 286.17651367 C165.70712904 283.90683097 165.6951095 281.63931386 165.68945312 279.36914062 C166.20418321 272.05066774 166.20418321 272.05066774 163.26953125 265.96484375 C161.04294971 265.59480081 161.04294971 265.59480081 158.48046875 265.55078125 C157.53945312 265.51210937 156.5984375 265.4734375 155.62890625 265.43359375 C154.15164063 265.3871875 154.15164063 265.3871875 152.64453125 265.33984375 C151.65195313 265.30117187 150.659375 265.2625 149.63671875 265.22265625 C147.1811774 265.12821235 144.72564715 265.042645 142.26953125 264.96484375 C142.19822998 265.86541504 142.19822998 265.86541504 142.12548828 266.78417969 C141.46930406 273.88590213 139.80908203 278.41648812 134.69921875 283.5390625 C131.42445192 286.19695465 128.74012746 287.22793291 124.53515625 287.59375 C123.73368164 287.66795166 122.93220703 287.74215332 122.10644531 287.81860352 C121.50026367 287.86686279 120.89408203 287.91512207 120.26953125 287.96484375 C120.3215214 291.69513697 120.41662567 295.42313511 120.51953125 299.15234375 C120.53371094 300.20744141 120.54789063 301.26253906 120.5625 302.34960938 C120.75078932 308.31838075 121.02107641 311.49147071 125.26953125 315.96484375 C126.30333871 320.51628181 126.33081459 325.06185293 124.0234375 329.19921875 C121.0958044 332.7328208 118.93530703 334.55671141 114.25390625 335.2734375 C109.5721811 335.54353703 106.91197396 335.18290977 103.26953125 332.08984375 C99.74147227 328.70878722 99.08257339 326.5352723 98.95703125 321.65234375 C98.90095703 320.23501953 98.90095703 320.23501953 98.84375 318.7890625 C99.26953125 315.96484375 99.26953125 315.96484375 103.26953125 310.96484375 C103.59953125 303.70484375 103.92953125 296.44484375 104.26953125 288.96484375 C89.41953125 288.96484375 74.56953125 288.96484375 59.26953125 288.96484375 C58.02507618 309.16478842 58.02507618 309.16478842 64.26953125 315.96484375 C65.82897464 319.08373053 65.552694 321.51025825 65.26953125 324.96484375 C63.83927176 328.9613974 62.02893314 331.41736797 58.58203125 333.90234375 C54.31589769 335.27072621 50.69204464 335.93059191 46.26953125 334.96484375 C42.34743904 332.642264 39.72104576 330.31938729 38.26953125 325.96484375 C38.03125 323.66015625 38.03125 323.66015625 37.95703125 321.08984375 C37.91964844 320.24679687 37.88226562 319.40375 37.84375 318.53515625 C38.26953125 315.96484375 38.26953125 315.96484375 42.26953125 310.96484375 C42.59953125 303.70484375 42.92953125 296.44484375 43.26953125 288.96484375 C28.41953125 288.96484375 13.56953125 288.96484375 -1.73046875 288.96484375 C-2.97492382 309.16478842 -2.97492382 309.16478842 3.26953125 315.96484375 C4.82897464 319.08373053 4.552694 321.51025825 4.26953125 324.96484375 C2.92055661 328.54989048 0.99040362 331.30757777 -1.85546875 333.90234375 C-6.1841162 335.50206129 -10.18112333 335.76297453 -14.73046875 334.96484375 C-17.36528198 333.56168877 -18.68403488 332.22669171 -20.73046875 329.96484375 C-20.73046875 329.30484375 -20.73046875 328.64484375 -20.73046875 327.96484375 C-25.58806126 327.90978721 -30.44186374 327.90749352 -35.29956055 327.95263672 C-36.94929195 327.96071334 -38.59915753 327.95474535 -40.2487793 327.93408203 C-49.73850735 327.51645001 -49.73850735 327.51645001 -58.3190918 330.74438477 C-60.03762391 332.73699991 -61.36289312 334.72602714 -62.73046875 336.96484375 C-68.27478427 340.96190842 -74.02077138 341.74837749 -80.73046875 340.96484375 C-86.56266913 339.14228113 -90.30321998 336.05675621 -93.73046875 330.96484375 C-96.72826068 325.13849008 -98.09218349 319.26072953 -96.07421875 312.89453125 C-93.32273239 306.65624751 -89.00768239 302.56703708 -82.91796875 299.58984375 C-76.06814744 298.24674153 -69.83494276 298.03119426 -63.60644531 301.51220703 C-61.42950593 303.19789018 -60.86319018 304.63582811 -59.67578125 307.08984375 C-57.99631235 309.40279654 -56.73483568 310.73132307 -53.90234375 311.38989258 C-48.23211867 311.99228873 -42.54067284 311.68995829 -36.85546875 311.46484375 C-35.10034108 311.42468954 -33.34512569 311.38819213 -31.58984375 311.35546875 C-27.29946418 311.27436517 -23.0212823 311.11793521 -18.73046875 310.96484375 C-18.40046875 303.37484375 -18.07046875 295.78484375 -17.73046875 287.96484375 C-26.31046875 287.96484375 -34.89046875 287.96484375 -43.73046875 287.96484375 C-43.73046875 280.37484375 -43.73046875 272.78484375 -43.73046875 264.96484375 C-47.09234375 265.04734375 -50.45421875 265.12984375 -53.91796875 265.21484375 C-54.96879639 265.23063477 -56.01962402 265.24642578 -57.10229492 265.26269531 C-62.57867501 265.4622374 -65.74583465 265.84446059 -69.73046875 269.96484375 C-72.93289318 271.56605596 -76.29146929 271.7265395 -79.73046875 270.96484375 C-80.80906484 270.16525248 -81.86684061 269.3372959 -82.91015625 268.4921875 C-87.15412953 265.28828655 -90.98268783 265.18994853 -96.16796875 265.15234375 C-96.99490234 265.12720703 -97.82183594 265.10207031 -98.67382812 265.07617188 C-100.69220655 265.01783724 -102.7113843 264.98834632 -104.73046875 264.96484375 C-104.99085937 265.72410156 -105.25125 266.48335937 -105.51953125 267.265625 C-106.76550354 270.04293744 -107.77798533 271.25681686 -110.10546875 273.15234375 C-110.69070313 273.64089844 -111.2759375 274.12945313 -111.87890625 274.6328125 C-117.77143545 278.8719527 -123.63786932 278.8961112 -130.73046875 277.96484375 C-136.39655456 275.71495274 -140.95907492 271.71354095 -143.91796875 266.37109375 C-145.81477561 260.75362728 -145.79300088 254.45244921 -144.06640625 248.78515625 C-141.33202623 243.4352823 -136.46649328 239.54885795 -131.35546875 236.58984375 C-124.00561055 234.83987751 -118.60054116 235.8372808 -111.97265625 239.4609375 C-108.76741693 241.61079314 -106.86959206 243.75615878 -104.73046875 246.96484375 C-104.73046875 247.62484375 -104.73046875 248.28484375 -104.73046875 248.96484375 C-101.66591766 248.90469554 -98.60613944 248.81761972 -95.54296875 248.71484375 C-94.24649414 248.69357422 -94.24649414 248.69357422 -92.92382812 248.671875 C-87.43524528 248.46158447 -84.91251455 247.74505597 -80.73046875 243.96484375 C-78.265625 243.43359375 -78.265625 243.43359375 -75.79296875 243.46484375 C-74.97957031 243.45453125 -74.16617187 243.44421875 -73.328125 243.43359375 C-70.73046875 243.96484375 -70.73046875 243.96484375 -64.73046875 247.96484375 C-54.33546875 248.45984375 -54.33546875 248.45984375 -43.73046875 248.96484375 C-43.73046875 234.11484375 -43.73046875 219.26484375 -43.73046875 203.96484375 C-62.19017701 202.93321845 -62.19017701 202.93321845 -68.73046875 208.96484375 C-71.94922042 210.57421959 -75.23968645 210.42724215 -78.73046875 209.96484375 C-83.52812741 207.56601442 -86.29571775 204.74070149 -88.73046875 199.96484375 C-89.34213138 195.68320531 -89.07166374 193.60932318 -87.04296875 189.77734375 C-83.46588646 185.42683827 -81.55724935 183.16781937 -75.79296875 182.52734375 C-70.91047246 182.77654488 -67.19427082 184.50104168 -63.73046875 187.96484375 C-53.33546875 188.45984375 -53.33546875 188.45984375 -42.73046875 188.96484375 C-42.73046875 173.78484375 -42.73046875 158.60484375 -42.73046875 142.96484375 C-62.06031045 141.82669447 -62.06031045 141.82669447 -68.73046875 147.96484375 C-71.00161351 149.10041613 -72.45340494 149.19568693 -74.98046875 149.27734375 C-76.10195312 149.33341797 -76.10195312 149.33341797 -77.24609375 149.390625 C-79.73046875 148.96484375 -79.73046875 148.96484375 -82.43896484 146.97631836 C-86.24742178 144.64892801 -88.45340977 144.43111826 -92.87890625 144.35546875 C-93.53629791 144.3389325 -94.19368958 144.32239624 -94.8710022 144.30535889 C-96.94925551 144.25717772 -99.02677901 144.23557761 -101.10546875 144.21484375 C-102.52347363 144.18665859 -103.94144496 144.15672762 -105.359375 144.125 C-108.81624916 144.05143083 -112.27298548 144.00167277 -115.73046875 143.96484375 C-115.64955995 149.92666528 -115.64955995 149.92666528 -112.98828125 154.98046875 C-112.28445313 155.3878125 -111.580625 155.79515625 -110.85546875 156.21484375 C-106.84758624 158.81028824 -104.58623455 161.09587351 -103.1875 165.78515625 C-101.9098987 171.87833168 -101.65163417 177.94480039 -104.91796875 183.40234375 C-109.10515052 189.1334026 -113.94355762 192.13759845 -120.73046875 193.96484375 C-127.25584918 194.93156678 -132.47138135 192.72751319 -137.73046875 188.96484375 C-142.58999241 183.37051308 -145.17946319 177.94218704 -145.0703125 170.5078125 C-144.44440496 165.82429746 -142.56178448 161.7233376 -139.73046875 157.96484375 C-138.52652796 157.29156368 -137.31771844 156.62695221 -136.10546875 155.96875 C-133.48178818 154.19710185 -132.82403164 153.35301031 -132.07055664 150.22705078 C-131.81640241 146.85214882 -131.76073865 143.5365043 -131.79296875 140.15234375 C-131.77685547 138.98251953 -131.76074219 137.81269531 -131.74414062 136.60742188 C-131.70885022 133.72537243 -131.70537981 130.84689637 -131.73046875 127.96484375 C-130.9014782 127.95937531 -130.9014782 127.95937531 -130.05574036 127.95379639 C-124.29641882 127.91194134 -118.53789198 127.84257525 -112.77905273 127.75732422 C-110.63069614 127.72912248 -108.48223594 127.707904 -106.33374023 127.69384766 C-103.24278756 127.67240752 -100.15307953 127.62575064 -97.0625 127.57421875 C-96.10398636 127.57299011 -95.14547272 127.57176147 -94.15791321 127.57049561 C-88.70001273 127.45098912 -85.72239258 127.04786242 -81.73046875 122.96484375 C-78.65851967 121.42886921 -76.12802582 121.73833995 -72.73046875 121.96484375 C-69.45855583 123.32299628 -67.23151369 124.46379881 -64.73046875 126.96484375 C-62.60186213 127.33436424 -62.60186213 127.33436424 -60.16015625 127.37890625 C-59.35304199 127.4145166 -58.54592773 127.45012695 -57.71435547 127.48681641 C-56.17545654 127.53781494 -56.17545654 127.53781494 -54.60546875 127.58984375 C-51.34671875 127.71359375 -48.08796875 127.83734375 -44.73046875 127.96484375 C-44.73046875 119.71484375 -44.73046875 111.46484375 -44.73046875 102.96484375 C-35.82046875 102.96484375 -26.91046875 102.96484375 -17.73046875 102.96484375 C-17.81296875 99.43796875 -17.89546875 95.91109375 -17.98046875 92.27734375 C-18.00415527 90.62279175 -18.00415527 90.62279175 -18.02832031 88.93481445 C-18.22592676 83.2494689 -18.6123761 80.1866868 -22.73046875 75.96484375 C-23.99797977 72.2283269 -24.35210544 68.58834152 -22.92578125 64.86328125 C-21.72417452 62.7319642 -20.47104031 60.70541531 -18.73046875 58.96484375 C-18.3696545 55.70485535 -18.35901494 52.42960121 -18.29296875 49.15234375 C-18.22432617 47.77852539 -18.22432617 47.77852539 -18.15429688 46.37695312 C-18.11071024 43.77502073 -18.1455702 41.50224622 -18.73046875 38.96484375 C-21.48270525 36.37740945 -21.48270525 36.37740945 -24.73046875 34.96484375 C-29.74251881 29.67434646 -31.1643389 24.34169296 -30.984375 17.203125 C-30.18012679 10.11336772 -26.24246705 4.98536412 -20.85546875 0.65234375 C-14.64852299 -2.59827655 -6.44357312 -2.44284246 0 0 Z " fill="#D7812B" transform="translate(1493.73046875,825.03515625)"/>
<path d="M0 0 C11.22 0 22.44 0 34 0 C34 54.78 34 109.56 34 166 C22.78 166 11.56 166 0 166 C-0.33 162.37 -0.66 158.74 -1 155 C-2.85625 156.5778125 -2.85625 156.5778125 -4.75 158.1875 C-17.78375387 168.38692961 -32.1241981 169.05742637 -48 168 C-55.66926587 166.56303905 -61.8353913 162.64698556 -68 158 C-68.59296875 157.58363281 -69.1859375 157.16726563 -69.796875 156.73828125 C-79.69533393 149.17821973 -85.2266424 137.53222944 -89 126 C-89.35964844 124.97390625 -89.71929688 123.9478125 -90.08984375 122.890625 C-95.87362869 104.52152261 -91.92569412 83.40806134 -83.33911133 66.66796875 C-75.87956051 53.0639658 -63.88229386 43.42606356 -49 39 C-45.06503732 38.44528712 -41.21945813 38.37929867 -37.25 38.4375 C-36.1973999 38.44773193 -35.1447998 38.45796387 -34.06030273 38.46850586 C-20.95498908 38.82439291 -10.43263427 42.56736573 -1 52 C-0.67 34.84 -0.34 17.68 0 0 Z " fill="#D8812B" transform="translate(935,1011)"/>
<path d="M0 0 C17.46077207 -0.58539005 34.85277009 4.05244347 48.31640625 15.51171875 C61.98232075 28.77437675 66.77973921 44.37488225 67.11108398 63.04174805 C67.2368286 82.67341056 63.16805859 100.17549225 49.38671875 114.84375 C36.28028523 127.15399831 20.60139569 130.37655911 3.25390625 130.44921875 C1.44212891 130.48015625 1.44212891 130.48015625 -0.40625 130.51171875 C-16.92578741 130.58284701 -30.91220184 125.9781771 -42.94140625 114.41015625 C-43.66070312 113.68054687 -44.38 112.9509375 -45.12109375 112.19921875 C-45.69601562 111.63460938 -46.2709375 111.07 -46.86328125 110.48828125 C-59.9449507 96.59324375 -61.62891327 77.13671447 -61.3984375 59.05859375 C-60.90593337 43.79831662 -54.84005185 28.23754991 -44.12109375 17.19921875 C-31.16057459 5.74354942 -16.96860159 1.08310223 0 0 Z " fill="#D7812B" transform="translate(466.12109375,1048.80078125)"/>
<path d="M0 0 C12.21 0 24.42 0 37 0 C37.29612756 40.4214123 37.29612756 40.4214123 35 60 C44.76971822 48.26585138 44.76971822 48.26585138 54.1875 36.25 C57.98621845 31.25365602 61.94652988 26.44314296 66.02490234 21.67626953 C69.4589709 17.65944995 72.78416273 13.56890763 76.05078125 9.4140625 C76.69402344 8.61742187 77.33726562 7.82078125 78 7 C78.38001663 6.42482132 78.76003326 5.84964264 79.15156555 5.2570343 C81.18656818 2.43654996 82.76688242 0.34575678 86.19789124 -0.61627197 C88.82239724 -0.80891622 91.36267867 -0.78803638 93.9921875 -0.68359375 C94.93812775 -0.67368912 95.88406799 -0.66378448 96.8586731 -0.65357971 C99.865725 -0.61454343 102.8690609 -0.52674483 105.875 -0.4375 C107.91921793 -0.40237209 109.96349336 -0.37043567 112.0078125 -0.34179688 C117.00662958 -0.26481676 122.00268591 -0.14411065 127 0 C125.09685015 4.08006684 122.39165575 7.20610735 119.4375 10.5625 C118.34276361 11.82206003 117.24902202 13.08248534 116.15625 14.34375 C115.61742187 14.96507812 115.07859375 15.58640625 114.5234375 16.2265625 C112.4521603 18.63774159 110.44078991 21.09467909 108.4375 23.5625 C105.17221642 27.58358159 101.85440512 31.55343674 98.5 35.5 C94.25646563 40.4940462 90.06896133 45.52852634 85.953125 50.62890625 C84.31801459 52.61393029 82.62112002 54.48976602 80.875 56.375 C78.72241468 58.78422731 78.72241468 58.78422731 79.21606445 61.34667969 C80.06120706 64.20716236 81.18941902 66.48842421 82.66796875 69.078125 C83.22427979 70.06119629 83.78059082 71.04426758 84.35375977 72.05712891 C84.95889404 73.11077637 85.56402832 74.16442383 86.1875 75.25 C87.47155386 77.51290753 88.75540234 79.77593161 90.0390625 82.0390625 C90.70464112 83.20742029 91.37033134 84.37571451 92.03613281 85.54394531 C95.07314739 90.8885473 98.06591402 96.25766519 101.0625 101.625 C114.74428413 126.06894557 114.74428413 126.06894557 128.75073242 150.32763672 C132 155.89379988 132 155.89379988 132 157 C117.48 157 102.96 157 88 157 C86.288125 153.679375 84.57625 150.35875 82.8125 146.9375 C77.98858199 137.6401909 72.94234359 128.49365354 67.74658203 119.39990234 C62.60836119 110.38113255 57.76590839 101.21982729 53 92 C49.15514898 94.87000404 46.23396384 97.9375186 43.25 101.6875 C39 107 39 107 38 108 C37.8774645 109.53382679 37.82222062 111.07310519 37.79467773 112.61157227 C37.77473251 113.59251358 37.75478729 114.5734549 37.73423767 115.5841217 C37.71752518 116.6507756 37.70081268 117.7174295 37.68359375 118.81640625 C37.66281265 119.9025975 37.64203156 120.98878876 37.62062073 122.1078949 C37.55500558 125.59269627 37.49618489 129.07757568 37.4375 132.5625 C37.39432615 134.91862801 37.35071224 137.27474799 37.30664062 139.63085938 C37.19848037 145.42049396 37.09949592 151.21018398 37 157 C24.79 157 12.58 157 0 157 C0 105.19 0 53.38 0 0 Z " fill="#D8812B" transform="translate(553,794)"/>
<path d="M0 0 C11.55 0 23.1 0 35 0 C35.04010881 15.57113109 35.04010881 15.57113109 35.04882812 22.26171875 C35.05478182 26.80844302 35.06178826 31.35514695 35.07543945 35.90185547 C35.08638786 39.57176561 35.0923019 43.24165391 35.09487724 46.91157913 C35.09671012 48.30444304 35.10028877 49.69730589 35.10573006 51.09016037 C35.13194208 58.08468121 35.07339589 64.97413003 34.22485352 71.92321777 C33.85567016 75.33305296 33.90632609 78.69586967 33.9375 82.125 C33.94652344 83.42695312 33.95554687 84.72890625 33.96484375 86.0703125 C33.97644531 87.03710938 33.98804688 88.00390625 34 89 C34.41507813 88.47535156 34.83015625 87.95070313 35.2578125 87.41015625 C37.03714791 85.17295838 38.82450608 82.94243122 40.61767578 80.71630859 C41.58348382 79.51715096 42.54788999 78.3168635 43.51123047 77.11572266 C52.21223347 66.29291001 61.30407162 55.94468288 71 46 C71.68400879 45.11513916 72.36801758 44.23027832 73.07275391 43.31860352 C77.32357053 39.95163058 80.84283212 40.36650663 86.11328125 40.51171875 C87.08283249 40.51879349 88.05238373 40.52586823 89.05131531 40.53315735 C92.13917137 40.56108126 95.22519475 40.62381697 98.3125 40.6875 C100.40947897 40.71258542 102.50648644 40.73539816 104.60351562 40.75585938 C109.73638009 40.81090162 114.86787964 40.89716141 120 41 C115.46201703 46.46999035 110.60684235 51.44099112 105.50390625 56.3828125 C103.87751731 57.97711219 102.25188783 59.57218692 100.62695312 61.16796875 C98.08366121 63.66164389 95.53625747 66.1503781 92.97583008 68.62646484 C90.4922639 71.03162755 88.02801508 73.45520897 85.56640625 75.8828125 C84.79261124 76.62250275 84.01881622 77.36219299 83.22157288 78.1242981 C82.52011642 78.82207367 81.81865997 79.51984924 81.09594727 80.23876953 C80.47228775 80.84608917 79.84862823 81.45340881 79.20606995 82.07913208 C77.73591661 83.99009616 77.73591661 83.99009616 78.23297119 86.58670044 C79.08822957 89.27759632 80.21482557 91.43786614 81.66796875 93.859375 C82.22419922 94.79716797 82.78042969 95.73496094 83.35351562 96.70117188 C83.95873047 97.70728516 84.56394531 98.71339844 85.1875 99.75 C86.47459234 101.9207282 87.75968984 104.09264023 89.04296875 106.265625 C89.70216309 107.38130859 90.36135742 108.49699219 91.04052734 109.64648438 C94.10350137 114.88857398 97.05348593 120.19183691 100 125.5 C105.3985539 135.21939137 110.95029659 144.83847639 116.64648438 154.38671875 C117.48083008 155.79824219 117.48083008 155.79824219 118.33203125 157.23828125 C118.82421143 158.06368408 119.3163916 158.88908691 119.82348633 159.73950195 C121 162 121 162 122 166 C108.8 166 95.6 166 82 166 C76.76375857 156.8365775 71.55700226 147.66544295 66.4375 138.4375 C65.81681641 137.32181641 65.19613281 136.20613281 64.55664062 135.05664062 C60.30740162 127.40446569 56.13171085 119.71607527 52 112 C45.51477542 114.80516369 39.53171144 119.84981143 36 126 C34.01335587 132.70304467 34.5429839 139.83884704 34.75 146.75 C34.76199821 148.62236871 34.76855093 150.4947806 34.76953125 152.3671875 C34.77355832 156.91777293 34.88892254 161.44582418 35 166 C23.45 166 11.9 166 0 166 C0 111.22 0 56.44 0 0 Z " fill="#D8812B" transform="translate(1136,785)"/>
<path d="M0 0 C39.27 0 78.54 0 119 0 C119 10.23 119 20.46 119 31 C92.27 31 65.54 31 38 31 C38 40.9 38 50.8 38 61 C55.49 61 72.98 61 91 61 C91 70.9 91 80.8 91 91 C73.18 91 55.36 91 37 91 C37 112.78 37 134.56 37 157 C24.79 157 12.58 157 0 157 C0 105.19 0 53.38 0 0 Z " fill="#D6812C" transform="translate(264,1020)"/>
<path d="M0 0 C1.37790987 1.03152218 2.73389821 2.09320073 4.0625 3.1875 C4.67480469 3.66574219 5.28710938 4.14398437 5.91796875 4.63671875 C14.28752245 11.97162563 18.73835418 23.34815293 20.0625 34.1875 C20.41821525 40.84804715 20.29574095 47.5281575 20.2578125 54.1953125 C20.25407679 56.13158013 20.25123246 58.06784967 20.24923706 60.00411987 C20.2416445 65.0708143 20.22203414 70.13739188 20.1998291 75.20404053 C20.17927582 80.38601095 20.17021516 85.56800046 20.16015625 90.75 C20.13878366 100.89589261 20.10363774 111.04166826 20.0625 121.1875 C8.5125 121.1875 -3.0375 121.1875 -14.9375 121.1875 C-14.94160889 118.72555176 -14.94571777 116.26360352 -14.94995117 113.72705078 C-14.96719996 105.56455075 -15.0117871 97.40236164 -15.06959057 89.24005318 C-15.10378412 84.29441468 -15.12895865 79.34908258 -15.13305664 74.40332031 C-15.13735599 69.62437115 -15.16595383 64.84611229 -15.21093178 60.067379 C-15.22385463 58.25031439 -15.22823306 56.43316695 -15.22365379 54.61606216 C-14.94689925 40.56724141 -14.94689925 40.56724141 -20.9375 28.1875 C-26.0959874 23.79599138 -31.01219145 23.78199691 -37.578125 23.84765625 C-45.94037199 24.69360449 -51.6179112 30.08500457 -56.9375 36.1875 C-57.46803986 36.75496445 -57.99857971 37.32242889 -58.54519653 37.90708923 C-64.52614083 45.32338239 -63.79644131 53.66373426 -63.7421875 62.69140625 C-63.75345194 64.38250105 -63.76733879 66.07358022 -63.78372192 67.76463318 C-63.81961013 72.18868047 -63.82015262 76.61203459 -63.81304932 81.03619385 C-63.81197196 86.35869707 -63.85529809 91.68100605 -63.89108276 97.00336456 C-63.94036354 105.06510065 -63.93363774 113.12503867 -63.9375 121.1875 C-75.4875 121.1875 -87.0375 121.1875 -98.9375 121.1875 C-98.9375 79.9375 -98.9375 38.6875 -98.9375 -3.8125 C-87.3875 -3.8125 -75.8375 -3.8125 -63.9375 -3.8125 C-63.4425 2.1275 -63.4425 2.1275 -62.9375 8.1875 C-61.019375 6.6096875 -61.019375 6.6096875 -59.0625 5 C-42.08071507 -8.13434928 -18.88461361 -11.93891674 0 0 Z " fill="#D7812B" transform="translate(800.9375,1055.8125)"/>
<path d="M0 0 C11.55 0 23.1 0 35 0 C35.0093457 2.50271484 35.01869141 5.00542969 35.02832031 7.58398438 C35.06214825 15.87021241 35.11772956 24.15619292 35.18390274 32.4422226 C35.22334429 37.46409883 35.2555491 42.48580059 35.27099609 47.5078125 C35.28618451 52.35800409 35.32066894 57.2077159 35.36830902 62.05769348 C35.38310028 63.90432048 35.39103972 65.75101598 35.39188385 67.59770203 C35.39426209 70.19260287 35.42140939 72.78618696 35.45410156 75.38085938 C35.4490712 76.1375592 35.44404083 76.89425903 35.43885803 77.67388916 C35.57357074 84.62395305 38.1010451 89.60132013 42.375 95 C47.30295471 98.70853734 54.22546165 97.71355851 60 97 C63.05428614 96.09431263 65.41397998 94.84192935 68 93 C68.99 92.319375 69.98 91.63875 71 90.9375 C72.03101678 89.99104781 73.02746546 89.00645115 74 88 C74.66257812 87.31914841 75.32515625 86.63829681 76.0078125 85.93681335 C83.28422472 77.34290442 83.13320153 69.78940576 83 59.08203125 C83.00753206 57.37137514 83.01857794 55.66073126 83.03295898 53.95011902 C83.0612055 49.48305001 83.04222843 45.0174273 83.01287842 40.55041504 C82.98757997 35.17203686 83.02187975 29.7937376 83.04600525 24.41539764 C83.07593527 16.2760944 83.03091506 8.14032177 83 0 C94.55 0 106.1 0 118 0 C118 41.25 118 82.5 118 125 C106.78 125 95.56 125 84 125 C83.67 120.71 83.34 116.42 83 112 C81.741875 113.216875 80.48375 114.43375 79.1875 115.6875 C66.66561855 126.82901657 51.70535433 127.9779359 35.67333984 127.23828125 C25.6410975 126.34408321 16.92431312 120.38700026 10.25390625 113.08984375 C2.43327747 103.27992785 -0.3381331 92.16485742 -0.22705078 79.80834961 C-0.22734283 78.93896759 -0.22763489 78.06958557 -0.22793579 77.17385864 C-0.22655529 74.33324801 -0.21105508 71.4929079 -0.1953125 68.65234375 C-0.19157781 66.66980635 -0.18873299 64.68726709 -0.18673706 62.70472717 C-0.17913651 57.51143205 -0.15951906 52.31825054 -0.1373291 47.125 C-0.11679325 41.81577084 -0.10771885 36.50652314 -0.09765625 31.19726562 C-0.07626953 20.79811939 -0.04111686 10.39908696 0 0 Z " fill="#D8812B" transform="translate(554,1052)"/>
<path d="M0 0 C11.88 0 23.76 0 36 0 C40.50185177 9.00370355 40.50185177 9.00370355 41.79589844 12.21508789 C42.23757355 13.30518158 42.23757355 13.30518158 42.68817139 14.41729736 C42.99216858 15.1780658 43.29616577 15.93883423 43.609375 16.72265625 C43.93770325 17.53796814 44.26603149 18.35328003 44.60430908 19.19329834 C45.65745706 21.81455659 46.70444119 24.43820612 47.75 27.0625 C48.10594238 27.9535141 48.46188477 28.8445282 48.82861328 29.76254272 C53.06562831 40.3824583 57.24102371 51.01217486 61 61.8125 C61.47904785 63.18643921 61.47904785 63.18643921 61.96777344 64.58813477 C64 70.58790191 64 70.58790191 64 74 C64.66 74 65.32 74 66 74 C66.36738281 72.13408203 66.36738281 72.13408203 66.7421875 70.23046875 C68.04575715 64.40294564 70.03632593 58.89908933 72.125 53.3125 C72.54442871 52.18287842 72.96385742 51.05325684 73.39599609 49.8894043 C79.74941292 33.05408144 86.92688494 16.54196263 94 0 C105.88 0 117.76 0 130 0 C126.62512803 10.12461591 126.62512803 10.12461591 125.21679688 13.43847656 C124.89720001 14.19527206 124.57760315 14.95206757 124.24832153 15.73179626 C123.90856293 16.52670975 123.56880432 17.32162323 123.21875 18.140625 C122.85312958 19.00389908 122.48750916 19.86717316 122.11080933 20.75660706 C120.91036498 23.58908984 119.70517214 26.41952599 118.5 29.25 C117.64889316 31.2559516 116.79815101 33.26205796 115.94775391 35.26831055 C114.18041195 39.43710877 112.41150253 43.60523685 110.64160156 47.77294922 C107.72525656 54.64356755 104.82290521 61.52005038 101.92359924 68.39787292 C99.9562053 73.06494062 97.98704226 77.73123574 96.01245117 82.39526367 C92.47550071 90.75137614 88.94710505 99.11029975 85.47235107 107.49250793 C83.9543673 111.15047306 82.42682216 114.80440454 80.89801025 118.45785522 C80.18764661 120.16234853 79.48169594 121.86868936 78.78070068 123.57705688 C71.38244133 141.59944788 63.03089769 156.32930164 44.8203125 165.04296875 C35.27082822 168.28344472 25.83288002 168.24621443 15.875 168.125 C14.42708956 168.11494507 12.97917232 168.10582368 11.53125 168.09765625 C8.02052358 168.077572 4.51076214 168.0383923 1 168 C1 158.43 1 148.86 1 139 C13.5 138.8125 13.5 138.8125 17.39257812 138.79223633 C24.50791745 138.59907723 29.59512532 137.83274475 35 133 C39.68723235 127.9081145 44.35873252 120.80643277 46 114 C45.49428921 108.57374888 43.51737792 104.02626407 41.37890625 99.08203125 C41.00731384 98.20813751 40.63572144 97.33424377 40.25286865 96.43386841 C39.44883653 94.54501295 38.64183379 92.65741981 37.83218384 90.77096558 C36.54723605 87.77693376 35.26996268 84.7797365 33.99487305 81.78149414 C32.66918615 78.6644737 31.34305215 75.54765267 30.01460266 72.43180847 C25.78998035 62.52250922 21.61118804 52.59432739 17.45162964 42.65756226 C16.34980562 40.02657995 15.2454773 37.39666005 14.14086914 34.7668457 C9.30202673 23.22626988 4.62345382 11.62868689 0 0 Z " fill="#D7812B" transform="translate(1134,1052)"/>
<path d="M0 0 C1.75775757 -0.00966797 1.75775757 -0.00966797 3.55102539 -0.01953125 C20.14102228 0.22363127 35.48964683 5.37115516 47.5625 17.046875 C56.28251474 26.82574867 59.75 35.52435409 59.75 48.5 C48.2 48.5 36.65 48.5 24.75 48.5 C23.76 45.53 22.77 42.56 21.75 39.5 C18.17510099 33.92736331 14.07770563 31.12738406 7.75 29.5 C-1.23676193 28.37665476 -8.82524529 29.0579146 -16.25 34.5 C-22.18605928 39.91933225 -26.73718275 47.59934775 -27.44238281 55.71362305 C-27.51878839 58.2495241 -27.52273549 60.77559837 -27.5 63.3125 C-27.50773437 64.16392578 -27.51546875 65.01535156 -27.5234375 65.89257812 C-27.49042269 76.72968911 -25.16151156 87.58848844 -17.25 95.5 C-10.33611864 99.93745476 -4.52596991 102.39335807 3.75 101.5 C10.31804409 99.82846458 16.10901842 97.58297982 20.75 92.5 C22.4 89.2 24.05 85.9 25.75 82.5 C37.3 82.5 48.85 82.5 60.75 82.5 C58.95783758 96.83729937 53.51886178 108.51497492 42.15625 117.87109375 C25.35169065 129.24690746 5.28743388 133.36866155 -14.6796875 129.8125 C-30.81021045 126.36982468 -43.78681085 118.39933452 -53.65234375 105.08203125 C-61.18755345 92.90410066 -63.59741724 81.05588383 -63.4375 67 C-63.43685547 65.92363281 -63.43621094 64.84726562 -63.43554688 63.73828125 C-63.33515203 45.42180015 -58.81539664 29.47179147 -45.84375 15.8515625 C-32.40345572 3.66623546 -17.57105676 0.09213374 0 0 Z " fill="#D7812B" transform="translate(1055.25,823.5)"/>
<path d="M0 0 C19.8 0 39.6 0 60 0 C60 45.54 60 91.08 60 138 C73.53 138 87.06 138 101 138 C101 147.24 101 156.48 101 166 C62.39 166 23.78 166 -16 166 C-16 156.76 -16 147.52 -16 138 C-2.47 138 11.06 138 25 138 C25 101.7 25 65.4 25 28 C16.75 28 8.5 28 0 28 C0 18.76 0 9.52 0 0 Z " fill="#D8812B" transform="translate(719,785)"/>
<path d="M0 0 C1.59630249 0.00858032 1.59630249 0.00858032 3.22485352 0.01733398 C15.55564937 0.29700152 25.31828497 3.74247484 34.3125 12.5 C44.80405378 24.00307129 46.65222367 37.02139178 46.4375 52.0625 C46.39625 56.166875 46.355 60.27125 46.3125 64.5 C34.7625 64.5 23.2125 64.5 11.3125 64.5 C11.125 53.5 11.125 53.5 11.10473633 50.08203125 C10.90018852 43.43334821 9.95986039 38.46590747 5.3125 33.5 C-0.8482634 29.30402061 -7.50368476 29.66043615 -14.6875 30.5 C-23.6739168 33.34549598 -31.04098716 39.3543564 -35.6875 47.5 C-36.0752036 50.30787593 -36.25278981 52.72439213 -36.23339844 55.52490234 C-36.24373611 56.30606415 -36.25407379 57.08722595 -36.26472473 57.89205933 C-36.29406534 60.45689798 -36.29565001 63.0209445 -36.296875 65.5859375 C-36.3118626 67.37099708 -36.32859097 69.15604282 -36.34698486 70.94107056 C-36.3906056 75.62636973 -36.41064574 80.31148185 -36.42572021 84.99694824 C-36.44875807 90.62558585 -36.50118168 96.25401775 -36.54866028 101.88249207 C-36.61741194 110.421715 -36.64891142 118.96034758 -36.6875 127.5 C-48.2375 127.5 -59.7875 127.5 -71.6875 127.5 C-71.6875 86.25 -71.6875 45 -71.6875 2.5 C-60.4675 2.5 -49.2475 2.5 -37.6875 2.5 C-37.1925 8.935 -37.1925 8.935 -36.6875 15.5 C-35.553125 14.448125 -34.41875 13.39625 -33.25 12.3125 C-23.37245829 3.6892493 -13.01339292 -0.0807143 0 0 Z " fill="#D7812B" transform="translate(1068.6875,1049.5)"/>
<path d="M0 0 C19.8 0 39.6 0 60 0 C60 32.01 60 64.02 60 97 C73.53 97 87.06 97 101 97 C101 106.24 101 115.48 101 125 C62.39 125 23.78 125 -16 125 C-16 115.76 -16 106.52 -16 97 C-2.47 97 11.06 97 25 97 C25 74.23 25 51.46 25 28 C16.75 28 8.5 28 0 28 C0 18.76 0 9.52 0 0 Z " fill="#D7812B" transform="translate(865,826)"/>
<path d="M0 0 C8.87298127 4.75338282 12.64095697 10.57703727 16.5 19.875 C20.2306008 32.54180456 17.99610023 48.05148061 12.3125 59.6875 C8.72391382 65.73714076 3.18074644 69.76880176 -3.5 71.875 C-13.30977235 72.76397832 -21.47349544 72.69121276 -29.38671875 66.3671875 C-37.65388294 58.91460762 -40.09795827 48.80845658 -40.72265625 38.03515625 C-41.06379 26.83349186 -39.72274475 16.84308667 -32.5 7.875 C-23.65446884 -1.22172271 -12.35527695 -4.10224323 0 0 Z " fill="#3B506A" transform="translate(480.5,1079.125)"/>
<path d="M0 0 C6.04020256 4.86383352 10.23682035 10.19161462 11.33056641 18.04272461 C11.50773536 21.45608121 11.58406667 24.82352147 11.54272461 28.23876953 C11.52351931 30.35815914 11.56294026 32.47094586 11.60742188 34.58984375 C11.66886267 44.49253438 9.6823219 52.19627826 2.82763672 59.68676758 C-2.88857997 65.21533447 -8.65154376 67.55953879 -16.5390625 67.9921875 C-24.26444392 67.74608809 -30.32967942 64.45152262 -35.9765625 59.3046875 C-44.42443714 50.15946472 -46.77992777 38.60372763 -46.4765625 26.50390625 C-45.92876883 16.81480564 -41.27774694 7.34550104 -34.24609375 0.671875 C-23.57590823 -7.87252888 -10.98441156 -7.65339867 0 0 Z " fill="#3B506A" transform="translate(924.1640625,1083.5078125)"/>
<path d="M0 0 C18.48 0 36.96 0 56 0 C56 18.48 56 36.96 56 56 C37.52 56 19.04 56 0 56 C0 37.52 0 19.04 0 0 Z " fill="#3A506A" transform="translate(1515,993)"/>
<path d="M0 0 C5.98110873 2.68516057 9.78600066 7.10369287 13.08984375 12.66015625 C14.6420613 19.33469174 14.49647582 25.50577906 11.046875 31.52734375 C7.37918698 36.53949219 2.87997116 40.13880774 -3.28515625 41.34765625 C-9.69075923 42.13620434 -14.21562891 41.63448584 -19.53125 37.84375 C-24.02754345 34.00838165 -27.89121368 29.59539212 -28.62109375 23.578125 C-28.70745352 16.85069872 -28.46673719 12.70865746 -24.28515625 7.34765625 C-17.16626329 0.22876329 -10.16179423 -2.90088827 0 0 Z " fill="#D6812B" transform="translate(1717.28515625,1000.65234375)"/>
<path d="M0 0 C12.54 0 25.08 0 38 0 C38 10.89 38 21.78 38 33 C25.46 33 12.92 33 0 33 C0 22.11 0 11.22 0 0 Z " fill="#D3802D" transform="translate(888,777)"/>
</svg>
