<svg width="49" height="48" viewBox="0 0 49 48" fill="none" xmlns="http://www.w3.org/2000/svg">
<path d="M38.5094 9.90906C38.4948 9.89344 38.4904 9.87268 38.4751 9.85742C38.4598 9.84216 38.4387 9.83752 38.423 9.82276C34.6821 6.09386 29.6155 4 24.3335 4C19.0515 4 13.985 6.09386 10.244 9.82276C10.2283 9.83752 10.2073 9.84204 10.1919 9.85742C10.1765 9.8728 10.1722 9.89342 10.1576 9.90906C7.37012 12.7099 5.4748 16.2737 4.71084 20.1507C3.94688 24.0277 4.34852 28.0441 5.86508 31.6931C7.38163 35.342 9.94513 38.46 13.232 40.6534C16.5189 42.8468 20.3819 44.0173 24.3335 44.0173C28.2851 44.0173 32.1481 42.8468 35.435 40.6534C38.7219 38.46 41.2854 35.342 42.8019 31.6931C44.3185 28.0441 44.7201 24.0277 43.9562 20.1507C43.1922 16.2737 41.2969 12.7099 38.5094 9.90906V9.90906ZM24.3334 40C21.9379 39.9992 19.5733 39.4595 17.4147 38.4209C15.2561 37.3823 13.3589 35.8713 11.8634 34H19.8939C20.4501 34.6287 21.1335 35.1321 21.8988 35.4769C22.6642 35.8217 23.494 36 24.3334 36C25.1728 36 26.0027 35.8217 26.768 35.4769C27.5333 35.1321 28.2167 34.6287 28.7729 34H36.8035C35.308 35.8714 33.4107 37.3823 31.2521 38.4209C29.0935 39.4595 26.7289 39.9992 24.3334 40V40ZM22.3334 30C22.3334 29.6044 22.4507 29.2178 22.6705 28.8889C22.8902 28.56 23.2026 28.3036 23.568 28.1522C23.9335 28.0009 24.3356 27.9613 24.7236 28.0384C25.1115 28.1156 25.4679 28.3061 25.7476 28.5858C26.0273 28.8655 26.2178 29.2219 26.295 29.6098C26.3721 29.9978 26.3325 30.3999 26.1812 30.7654C26.0298 31.1308 25.7734 31.4432 25.4445 31.6629C25.1156 31.8827 24.729 32 24.3334 32C23.8031 31.9995 23.2947 31.7886 22.9198 31.4136C22.5448 31.0387 22.3339 30.5303 22.3334 30V30ZM39.1538 30.0042L39.1332 30H30.3334C30.3296 28.7632 29.9431 27.558 29.2269 26.5496C28.5107 25.5413 27.4999 24.7794 26.3334 24.3685V18C26.3334 17.4696 26.1227 16.9609 25.7476 16.5858C25.3725 16.2107 24.8638 16 24.3334 16C23.803 16 23.2943 16.2107 22.9192 16.5858C22.5441 16.9609 22.3334 17.4696 22.3334 18V24.3685C21.1669 24.7794 20.1561 25.5413 19.4399 26.5496C18.7237 27.558 18.3372 28.7632 18.3334 30H9.53361L9.51296 30.0042C8.99276 28.7206 8.6429 27.3744 8.47232 26H10.3334C10.8638 26 11.3725 25.7893 11.7476 25.4142C12.1227 25.0391 12.3334 24.5304 12.3334 24C12.3334 23.4696 12.1227 22.9609 11.7476 22.5858C11.3725 22.2107 10.8638 22 10.3334 22H8.47232C8.8297 19.1571 9.94851 16.4636 11.7105 14.2042L13.0199 15.5137C13.2056 15.6994 13.4261 15.8467 13.6687 15.9472C13.9113 16.0477 14.1714 16.0994 14.434 16.0994C14.6966 16.0994 14.9567 16.0477 15.1993 15.9472C15.4419 15.8467 15.6624 15.6994 15.8481 15.5137C16.0338 15.328 16.1811 15.1075 16.2816 14.8649C16.3821 14.6223 16.4338 14.3622 16.4338 14.0996C16.4338 13.837 16.382 13.5769 16.2815 13.3343C16.181 13.0917 16.0337 12.8712 15.848 12.6855L14.5387 11.3762C16.798 9.61482 19.491 8.49634 22.3334 8.13892V10C22.3334 10.5304 22.5441 11.0391 22.9192 11.4142C23.2943 11.7893 23.803 12 24.3334 12C24.8638 12 25.3725 11.7893 25.7476 11.4142C26.1227 11.0391 26.3334 10.5304 26.3334 10V8.13892C29.1758 8.49634 31.8688 9.61482 34.1281 11.3762L32.8188 12.6855C32.4437 13.0606 32.233 13.5692 32.233 14.0996C32.233 14.63 32.4437 15.1386 32.8188 15.5137C33.1938 15.8887 33.7024 16.0994 34.2328 16.0994C34.7632 16.0994 35.2719 15.8887 35.6469 15.5137L36.9563 14.2042C38.7183 16.4636 39.8371 19.1571 40.1945 22H38.3334C37.803 22 37.2943 22.2107 36.9192 22.5858C36.5441 22.9609 36.3334 23.4696 36.3334 24C36.3334 24.5304 36.5441 25.0391 36.9192 25.4142C37.2943 25.7893 37.803 26 38.3334 26H40.1945C40.0239 27.3744 39.674 28.7206 39.1538 30.0042V30.0042Z" fill="#1A1A1A"/>
</svg>
