<svg width="518" height="583" viewBox="0 0 518 583" fill="none" xmlns="http://www.w3.org/2000/svg">
<path d="M518 256.872V244.587L157.063 0.332458H138.91L518 256.872Z" fill="#E8E8E8"/>
<path d="M518 280.803V268.522L121.231 0.332458H103.062L518 280.803Z" fill="#E8E8E8"/>
<path d="M518 232.941V220.651L192.044 0.332458H173.861L518 232.941Z" fill="#E8E8E8"/>
<path d="M518 305.691V293.375L85.3954 0.332458H67.2141L518 305.691Z" fill="#E8E8E8"/>
<path d="M518 209.01V196.714L227.875 0.332458H209.709L518 209.01Z" fill="#E8E8E8"/>
<path d="M518 329.622V317.312L50.4212 0.332458H32.2627L518 329.622Z" fill="#E8E8E8"/>
<path d="M518 449.276V436.986L-0.000244141 86.4837V98.7738L518 449.276Z" fill="#E8E8E8"/>
<path d="M518 401.415V389.124L-0.000244141 38.6219V50.912L518 401.415Z" fill="#E8E8E8"/>
<path d="M518 377.484V365.193L-0.000244141 14.691V26.981L518 377.484Z" fill="#E8E8E8"/>
<path d="M518 425.345V413.055L-0.000244141 62.5527V74.8428L518 425.345Z" fill="#E8E8E8"/>
<path d="M518 16.6055V4.31519L512.072 0.332458H493.802L518 16.6055Z" fill="#E8E8E8"/>
<path d="M518 40.5364V28.2786L476.882 0.332458H458.851L518 40.5364Z" fill="#E8E8E8"/>
<path d="M518 341.248L14.7745 0.332458H-0.000244141V2.62806L518 353.553V341.248Z" fill="#E8E8E8"/>
<path d="M518 185.079V172.775L263.702 0.332458H245.557L518 185.079Z" fill="#E8E8E8"/>
<path d="M518 64.4673V52.2231L441.146 0.332458H423.003L518 64.4673Z" fill="#E8E8E8"/>
<path d="M518 161.148V148.834L298.694 0.332458H280.509L518 161.148Z" fill="#E8E8E8"/>
<path d="M518 88.3982V76.1577L405.349 0.332458H387.156L518 88.3982Z" fill="#E8E8E8"/>
<path d="M518 137.217V124.889L334.517 0.332458H316.356L518 137.217Z" fill="#E8E8E8"/>
<path d="M518 113.286V100.943L370.328 0.332458H352.204L518 113.286Z" fill="#E8E8E8"/>
<path d="M323.279 582.332H341.45L-0.000244141 351.638V363.915L323.279 582.332Z" fill="#E8E8E8"/>
<path d="M216.634 582.332H234.803L-0.000244141 423.431V435.727L216.634 582.332Z" fill="#E8E8E8"/>
<path d="M145.805 582.332H164.003L-0.000244141 471.293V483.614L145.805 582.332Z" fill="#E8E8E8"/>
<path d="M180.815 582.332H198.955L-0.000244141 447.362V459.668L180.815 582.332Z" fill="#E8E8E8"/>
<path d="M252.461 582.332H270.65L-0.000244141 399.5V411.788L252.461 582.332Z" fill="#E8E8E8"/>
<path d="M287.449 582.332H305.602L-0.000244141 375.569V387.851L287.449 582.332Z" fill="#E8E8E8"/>
<path d="M3.41522 582.332H21.5084L-0.000244141 567.974V580.052L3.41522 582.332Z" fill="#E8E8E8"/>
<path d="M39.1163 582.332H57.3562L-0.000244141 544.043V556.219L39.1163 582.332Z" fill="#E8E8E8"/>
<path d="M109.993 582.332H128.155L-0.000244141 495.224V507.569L109.993 582.332Z" fill="#E8E8E8"/>
<path d="M518 473.207V460.917L-0.000244141 110.415V122.705L518 473.207Z" fill="#E8E8E8"/>
<path d="M74.2094 582.332H92.3077L-0.000244141 519.155V531.542L74.2094 582.332Z" fill="#E8E8E8"/>
<path d="M518 545.957V533.667L-0.000244141 183.165V195.455L518 545.957Z" fill="#E8E8E8"/>
<path d="M358.258 582.332H376.401L-0.000244141 326.75V339.069L358.258 582.332Z" fill="#E8E8E8"/>
<path d="M518 569.888V557.598L-0.000244141 207.096V219.381L518 569.888Z" fill="#E8E8E8"/>
<path d="M518 497.138V484.848L-0.000244141 134.346V146.636L518 497.138Z" fill="#E8E8E8"/>
<path d="M518 521.069V508.779L-0.000244141 158.277V170.567L518 521.069Z" fill="#E8E8E8"/>
<path d="M394.09 582.332H412.249L-0.000244141 302.819V315.131L394.09 582.332Z" fill="#E8E8E8"/>
<path d="M500.76 582.332H518V581.702L-0.000244141 231.027V243.318L500.76 582.332Z" fill="#E8E8E8"/>
<path d="M429.924 582.332H448.097L-0.000244141 278.888V291.194L429.924 582.332Z" fill="#E8E8E8"/>
<path d="M464.898 582.332H483.048L-0.000244141 254.957V267.258L464.898 582.332Z" fill="#E8E8E8"/>
</svg>
